<svg width="14" height="14" viewBox="0 0 14 14" fill="none" xmlns="http://www.w3.org/2000/svg">
<path d="M13.1891 5.41808L9.2219 4.84152L7.44847 1.24621C7.40003 1.14777 7.32034 1.06808 7.2219 1.01965C6.97503 0.897772 6.67503 0.999334 6.55159 1.24621L4.77815 4.84152L0.810967 5.41808C0.701592 5.43371 0.601592 5.48527 0.525029 5.5634C0.432469 5.65853 0.381465 5.78652 0.383223 5.91924C0.384981 6.05197 0.439357 6.17856 0.534404 6.27121L3.40472 9.06965L2.72659 13.0212C2.71069 13.1131 2.72086 13.2077 2.75595 13.2941C2.79105 13.3805 2.84966 13.4554 2.92514 13.5102C3.00062 13.5651 3.08995 13.5976 3.183 13.6043C3.27605 13.6109 3.3691 13.5913 3.45159 13.5478L7.00003 11.6821L10.5485 13.5478C10.6453 13.5993 10.7578 13.6165 10.8657 13.5978C11.1375 13.5509 11.3203 13.2931 11.2735 13.0212L10.5953 9.06965L13.4657 6.27121C13.5438 6.19465 13.5953 6.09465 13.611 5.98527C13.6532 5.71183 13.4625 5.45871 13.1891 5.41808Z" fill="#FEA250"/>
</svg>
